<?xml version="1.0" encoding="UTF-8"?><svg id="Layer_2" xmlns="http://www.w3.org/2000/svg" viewBox="0 0 60.78 73.34"><defs><style>.cls-1{fill:#18343c;}</style></defs><g id="Layer_1-2"><polygon class="cls-1" points="15.93 31.16 15.93 63.22 0 52.07 0 20 15.93 31.16"/><polygon class="cls-1" points="38.35 35.7 38.35 67.77 30.39 73.34 22.43 67.77 22.43 35.71 24.72 37.31 30.39 41.28 36.06 37.31 38.35 35.7"/><polygon class="cls-1" points="60.78 20 60.78 52.06 44.85 63.21 44.85 31.15 60.78 20"/><polygon class="cls-1" points="60.78 0 60.78 12.06 44.85 23.21 38.35 27.77 30.39 33.34 22.43 27.77 15.93 23.22 0 12.07 0 0 24.72 17.31 30.39 21.28 36.06 17.31 60.78 0"/></g></svg>